<svg width="238" height="59" viewBox="0 0 238 59" fill="none" xmlns="http://www.w3.org/2000/svg">
<path d="M22.3438 40.9583L20.625 47.8333L18.3333 50.125H36.6667L34.375 47.8333L32.6563 40.9583H22.3438ZM6.875 31.7917H48.125H6.875ZM11.4583 40.9583H43.5417C44.7572 40.9583 45.923 40.4754 46.7826 39.6159C47.6421 38.7564 48.125 37.5906 48.125 36.375V13.4583C48.125 12.2428 47.6421 11.077 46.7826 10.2174C45.923 9.35789 44.7572 8.875 43.5417 8.875H11.4583C10.2428 8.875 9.07697 9.35789 8.21743 10.2174C7.35789 11.077 6.875 12.2428 6.875 13.4583V36.375C6.875 37.5906 7.35789 38.7564 8.21743 39.6159C9.07697 40.4754 10.2428 40.9583 11.4583 40.9583Z" stroke="#333333" stroke-width="6" stroke-linecap="round" stroke-linejoin="round"/>
<path d="M15.625 16.1667C15.625 16.4658 15.8676 16.7083 16.1667 16.7083C16.4659 16.7083 16.7084 16.4658 16.7084 16.1667C16.7084 15.8675 16.4659 15.625 16.1667 15.625C15.8676 15.625 15.625 15.8675 15.625 16.1667Z" stroke="#333333" stroke-width="2"/>
<path d="M19.9583 16.1667C19.9583 16.4658 20.2008 16.7083 20.5 16.7083C20.7991 16.7083 21.0416 16.4658 21.0416 16.1667C21.0416 15.8675 20.7991 15.625 20.5 15.625C20.2008 15.625 19.9583 15.8675 19.9583 16.1667Z" stroke="#333333" stroke-width="2"/>
<path d="M24.2917 16.1667C24.2917 16.4658 24.5342 16.7083 24.8333 16.7083C25.1325 16.7083 25.375 16.4658 25.375 16.1667C25.375 15.8675 25.1325 15.625 24.8333 15.625C24.5342 15.625 24.2917 15.8675 24.2917 16.1667Z" stroke="#333333" stroke-width="2"/>
<path d="M15.625 20.5C15.625 20.7992 15.8676 21.0417 16.1667 21.0417C16.4659 21.0417 16.7084 20.7992 16.7084 20.5C16.7084 20.2009 16.4659 19.9583 16.1667 19.9583C15.8676 19.9583 15.625 20.2009 15.625 20.5Z" stroke="#333333" stroke-width="2"/>
<path d="M19.9583 20.5C19.9583 20.7992 20.2008 21.0417 20.5 21.0417C20.7991 21.0417 21.0416 20.7992 21.0416 20.5C21.0416 20.2009 20.7991 19.9583 20.5 19.9583C20.2008 19.9583 19.9583 20.2009 19.9583 20.5Z" stroke="#333333" stroke-width="2"/>
<path d="M24.2917 20.5C24.2917 20.7992 24.5342 21.0417 24.8333 21.0417C25.1325 21.0417 25.375 20.7992 25.375 20.5C25.375 20.2009 25.1325 19.9583 24.8333 19.9583C24.5342 19.9583 24.2917 20.2009 24.2917 20.5Z" stroke="#333333" stroke-width="2"/>
<path d="M15.625 24.8333C15.625 25.1325 15.8676 25.375 16.1667 25.375C16.4659 25.375 16.7084 25.1325 16.7084 24.8333C16.7084 24.5342 16.4659 24.2917 16.1667 24.2917C15.8676 24.2917 15.625 24.5342 15.625 24.8333Z" stroke="#333333" stroke-width="2"/>
<path d="M19.9583 24.8333C19.9583 25.1325 20.2008 25.375 20.5 25.375C20.7991 25.375 21.0416 25.1325 21.0416 24.8333C21.0416 24.5342 20.7991 24.2917 20.5 24.2917C20.2008 24.2917 19.9583 24.5342 19.9583 24.8333Z" stroke="#333333" stroke-width="2"/>
<path d="M24.2917 24.8333C24.2917 25.1325 24.5342 25.375 24.8333 25.375C25.1325 25.375 25.375 25.1325 25.375 24.8333C25.375 24.5342 25.1325 24.2917 24.8333 24.2917C24.5342 24.2917 24.2917 24.5342 24.2917 24.8333Z" stroke="#333333" stroke-width="2"/>
<path d="M28.625 16.1667C28.625 16.4658 28.8676 16.7083 29.1667 16.7083C29.4659 16.7083 29.7084 16.4658 29.7084 16.1667C29.7084 15.8675 29.4659 15.625 29.1667 15.625C28.8676 15.625 28.625 15.8675 28.625 16.1667Z" stroke="#333333" stroke-width="2"/>
<path d="M32.9583 16.1667C32.9583 16.4658 33.2008 16.7083 33.5 16.7083C33.7991 16.7083 34.0416 16.4658 34.0416 16.1667C34.0416 15.8675 33.7991 15.625 33.5 15.625C33.2008 15.625 32.9583 15.8675 32.9583 16.1667Z" stroke="#333333" stroke-width="2"/>
<path d="M37.2917 16.1667C37.2917 16.4658 37.5342 16.7083 37.8333 16.7083C38.1325 16.7083 38.375 16.4658 38.375 16.1667C38.375 15.8675 38.1325 15.625 37.8333 15.625C37.5342 15.625 37.2917 15.8675 37.2917 16.1667Z" stroke="#333333" stroke-width="2"/>
<path d="M28.625 20.5C28.625 20.7992 28.8676 21.0417 29.1667 21.0417C29.4659 21.0417 29.7084 20.7992 29.7084 20.5C29.7084 20.2009 29.4659 19.9583 29.1667 19.9583C28.8676 19.9583 28.625 20.2009 28.625 20.5Z" stroke="#333333" stroke-width="2"/>
<path d="M32.9583 20.5C32.9583 20.7992 33.2008 21.0417 33.5 21.0417C33.7991 21.0417 34.0416 20.7992 34.0416 20.5C34.0416 20.2009 33.7991 19.9583 33.5 19.9583C33.2008 19.9583 32.9583 20.2009 32.9583 20.5Z" stroke="#333333" stroke-width="2"/>
<path d="M37.2917 20.5C37.2917 20.7992 37.5342 21.0417 37.8333 21.0417C38.1325 21.0417 38.375 20.7992 38.375 20.5C38.375 20.2009 38.1325 19.9583 37.8333 19.9583C37.5342 19.9583 37.2917 20.2009 37.2917 20.5Z" stroke="#333333" stroke-width="2"/>
<path d="M28.625 24.8333C28.625 25.1325 28.8676 25.375 29.1667 25.375C29.4659 25.375 29.7084 25.1325 29.7084 24.8333C29.7084 24.5342 29.4659 24.2917 29.1667 24.2917C28.8676 24.2917 28.625 24.5342 28.625 24.8333Z" stroke="#333333" stroke-width="2"/>
<path d="M32.9583 24.8333C32.9583 25.1325 33.2008 25.375 33.5 25.375C33.7991 25.375 34.0416 25.1325 34.0416 24.8333C34.0416 24.5342 33.7991 24.2917 33.5 24.2917C33.2008 24.2917 32.9583 24.5342 32.9583 24.8333Z" stroke="#333333" stroke-width="2"/>
<path d="M37.2917 24.8333C37.2917 25.1325 37.5342 25.375 37.8333 25.375C38.1325 25.375 38.375 25.1325 38.375 24.8333C38.375 24.5342 38.1325 24.2917 37.8333 24.2917C37.5342 24.2917 37.2917 24.5342 37.2917 24.8333Z" stroke="#333333" stroke-width="2"/>
<path d="M69.498 34.4756V47H62.1738V11.4531H76.041C78.7103 11.4531 81.054 11.9414 83.0723 12.918C85.1068 13.8945 86.6693 15.2861 87.7598 17.0928C88.8503 18.8831 89.3955 20.9258 89.3955 23.2207C89.3955 26.7038 88.1992 29.4544 85.8066 31.4727C83.4303 33.4746 80.1344 34.4756 75.9189 34.4756H69.498ZM69.498 28.543H76.041C77.9779 28.543 79.4508 28.0872 80.46 27.1758C81.4854 26.2643 81.998 24.9622 81.998 23.2695C81.998 21.528 81.4854 20.1201 80.46 19.0459C79.4346 17.9717 78.0186 17.4183 76.2119 17.3857H69.498V28.543ZM104.63 41.7998C105.932 41.7998 106.99 41.4417 107.804 40.7256C108.618 40.0094 109.041 39.0573 109.073 37.8691H115.689C115.673 39.6595 115.185 41.3034 114.225 42.8008C113.264 44.2819 111.946 45.4375 110.27 46.2676C108.609 47.0814 106.77 47.4883 104.752 47.4883C100.976 47.4883 97.9974 46.292 95.8164 43.8994C93.6354 41.4906 92.5449 38.1702 92.5449 33.9385V33.4746C92.5449 29.4056 93.6273 26.1585 95.792 23.7334C97.9567 21.3083 100.927 20.0957 104.703 20.0957C108.007 20.0957 110.652 21.0397 112.638 22.9277C114.64 24.7995 115.657 27.2979 115.689 30.4229H109.073C109.041 29.0557 108.618 27.9489 107.804 27.1025C106.99 26.2399 105.916 25.8086 104.581 25.8086C102.937 25.8086 101.692 26.4108 100.846 27.6152C100.016 28.8034 99.6006 30.7402 99.6006 33.4258V34.1582C99.6006 36.8763 100.016 38.8294 100.846 40.0176C101.676 41.2057 102.937 41.7998 104.63 41.7998ZM127.506 34.4756V47H120.182V11.4531H134.049C136.718 11.4531 139.062 11.9414 141.08 12.918C143.115 13.8945 144.677 15.2861 145.768 17.0928C146.858 18.8831 147.403 20.9258 147.403 23.2207C147.403 26.7038 146.207 29.4544 143.814 31.4727C141.438 33.4746 138.142 34.4756 133.927 34.4756H127.506ZM127.506 28.543H134.049C135.986 28.543 137.459 28.0872 138.468 27.1758C139.493 26.2643 140.006 24.9622 140.006 23.2695C140.006 21.528 139.493 20.1201 138.468 19.0459C137.442 17.9717 136.026 17.4183 134.22 17.3857H127.506V28.543ZM167.008 47C166.682 46.3652 166.446 45.5758 166.3 44.6318C164.591 46.5361 162.369 47.4883 159.635 47.4883C157.047 47.4883 154.898 46.7396 153.189 45.2422C151.497 43.7448 150.65 41.8568 150.65 39.5781C150.65 36.7786 151.684 34.6302 153.751 33.1328C155.834 31.6354 158.837 30.8786 162.76 30.8623H166.007V29.3486C166.007 28.1279 165.689 27.1514 165.055 26.4189C164.436 25.6865 163.451 25.3203 162.101 25.3203C160.912 25.3203 159.977 25.6051 159.293 26.1748C158.626 26.7445 158.292 27.5257 158.292 28.5186H151.236C151.236 26.9886 151.708 25.5726 152.652 24.2705C153.596 22.9684 154.931 21.9512 156.656 21.2188C158.382 20.4701 160.318 20.0957 162.467 20.0957C165.722 20.0957 168.302 20.9176 170.206 22.5615C172.127 24.1891 173.087 26.484 173.087 29.4463V40.8965C173.103 43.403 173.453 45.2992 174.137 46.585V47H167.008ZM161.173 42.0928C162.215 42.0928 163.175 41.8649 164.054 41.4092C164.933 40.9372 165.584 40.3105 166.007 39.5293V34.9883H163.37C159.838 34.9883 157.958 36.209 157.73 38.6504L157.706 39.0654C157.706 39.9443 158.015 40.6686 158.634 41.2383C159.252 41.8079 160.099 42.0928 161.173 42.0928ZM193.351 27.2002C192.39 27.07 191.544 27.0049 190.812 27.0049C188.142 27.0049 186.393 27.9082 185.562 29.7148V47H178.507V20.584H185.172L185.367 23.7334C186.783 21.3083 188.744 20.0957 191.251 20.0957C192.032 20.0957 192.765 20.2015 193.448 20.4131L193.351 27.2002ZM206.437 14.0898V20.584H210.953V25.7598H206.437V38.9434C206.437 39.9199 206.624 40.6198 206.998 41.043C207.372 41.4661 208.089 41.6777 209.146 41.6777C209.928 41.6777 210.619 41.6208 211.222 41.5068V46.8535C209.838 47.2767 208.414 47.4883 206.949 47.4883C202.001 47.4883 199.479 44.9899 199.381 39.9932V25.7598H195.523V20.584H199.381V14.0898H206.437ZM229.19 39.7002C229.19 38.8376 228.759 38.1621 227.896 37.6738C227.05 37.1693 225.683 36.7217 223.795 36.3311C217.512 35.0127 214.371 32.3434 214.371 28.3232C214.371 25.9795 215.34 24.0264 217.276 22.4639C219.229 20.8851 221.777 20.0957 224.918 20.0957C228.271 20.0957 230.948 20.8851 232.95 22.4639C234.968 24.0426 235.978 26.0934 235.978 28.6162H228.922C228.922 27.6071 228.596 26.777 227.945 26.126C227.294 25.4587 226.277 25.125 224.894 25.125C223.705 25.125 222.786 25.3936 222.135 25.9307C221.484 26.4678 221.158 27.1514 221.158 27.9814C221.158 28.7627 221.524 29.3975 222.257 29.8857C223.006 30.3577 224.259 30.7728 226.017 31.1309C227.774 31.4727 229.256 31.8633 230.46 32.3027C234.187 33.6699 236.051 36.0381 236.051 39.4072C236.051 41.8161 235.017 43.7692 232.95 45.2666C230.883 46.7477 228.214 47.4883 224.942 47.4883C222.729 47.4883 220.759 47.0977 219.034 46.3164C217.325 45.5189 215.982 44.4365 215.006 43.0693C214.029 41.6859 213.541 40.1966 213.541 38.6016H220.23C220.296 39.8548 220.759 40.8151 221.622 41.4824C222.485 42.1497 223.64 42.4834 225.089 42.4834C226.44 42.4834 227.457 42.2311 228.141 41.7266C228.84 41.2057 229.19 40.5303 229.19 39.7002Z" fill="#333333"/>
</svg>
